<?xml version="1.0" encoding="UTF-8" standalone="no"?>
<svg
   xmlns:dc="http://purl.org/dc/elements/1.1/"
   xmlns:cc="http://creativecommons.org/ns#"
   xmlns:rdf="http://www.w3.org/1999/02/22-rdf-syntax-ns#"
   xmlns:svg="http://www.w3.org/2000/svg"
   xmlns="http://www.w3.org/2000/svg"
   xmlns:sodipodi="http://sodipodi.sourceforge.net/DTD/sodipodi-0.dtd"
   xmlns:inkscape="http://www.inkscape.org/namespaces/inkscape"
   width="119.41648mm"
   height="49.776352mm"
   viewBox="0 0 119.41648 49.776352"
   version="1.1"
   id="svg8"
   sodipodi:docname="back2.svg"
   inkscape:version="1.0 (4035a4fb49, 2020-05-01)">
  <defs
     id="defs2">
    <inkscape:path-effect
       effect="bspline"
       id="path-effect863"
       is_visible="true"
       lpeversion="1"
       weight="33.333333"
       steps="2"
       helper_size="0"
       apply_no_weight="true"
       apply_with_weight="true"
       only_selected="false" />
  </defs>
  <sodipodi:namedview
     id="base"
     pagecolor="#ffffff"
     bordercolor="#666666"
     borderopacity="1.0"
     inkscape:pageopacity="0.0"
     inkscape:pageshadow="2"
     inkscape:zoom="1.5237461"
     inkscape:cx="257.29804"
     inkscape:cy="56.550623"
     inkscape:document-units="mm"
     inkscape:current-layer="layer1"
     inkscape:document-rotation="0"
     showgrid="false"
     inkscape:window-width="1920"
     inkscape:window-height="1017"
     inkscape:window-x="-8"
     inkscape:window-y="-8"
     inkscape:window-maximized="1" />
  <metadata
     id="metadata5">
    <rdf:RDF>
      <cc:Work
         rdf:about="">
        <dc:format>image/svg+xml</dc:format>
        <dc:type
           rdf:resource="http://purl.org/dc/dcmitype/StillImage" />
      </cc:Work>
    </rdf:RDF>
  </metadata>
  <g
     inkscape:label="Layer 1"
     inkscape:groupmode="layer"
     id="layer1"
     transform="translate(-207.87,-164.40674)">
    <path
       transform="matrix(0.26458333,0,0,0.26458333,207.87,116.11776)"
       d="m 450.56836,183.00977 c -0.25191,0.006 -0.45798,0.13272 -0.67188,0.28125 -1.0607,0.7365 -2.35727,1.85542 -3.83007,2.94531 -1.4728,1.0899 -3.12251,2.15143 -5.03711,3.03515 -1.9146,0.88371 -4.09343,1.59068 -6.33203,2.1504 -2.2387,0.55967 -4.5374,0.97134 -6.6875,0.79492 -2.1502,-0.17642 -4.20302,-0.96236 -6.38672,-1.77735 -2.1836,-0.815 -4.59891,-1.69797 -7.19141,-1.875 -2.5924,-0.17704 -5.41895,0.36363 -8.24805,1.30078 -2.82908,0.93715 -5.77457,2.2937 -8.04297,3.58985 -2.26827,1.29616 -3.82295,2.50406 -5.78515,3.46094 -1.9623,0.95688 -4.25954,1.60387 -6.11524,1.86914 -1.8556,0.26527 -3.26911,0.14833 -5.50781,-0.20508 -2.2387,-0.3534 -5.30264,-0.94316 -7.83594,-1.32617 -2.5334,-0.38301 -4.53638,-0.55927 -6.80468,-0.41211 -2.2683,0.14716 -4.80212,0.61779 -7.04102,1.23632 -2.239,0.61858 -4.18347,1.38606 -5.95117,2.56446 -1.7677,1.1784 -3.35679,2.76906 -4.94727,3.94726 -1.5905,1.1782 -3.18232,1.94286 -4.89062,2.38477 -1.7082,0.44192 -3.53493,0.55963 -5.36133,0.73633 -1.8264,0.1767 -3.65109,0.41257 -5.71289,0.29492 -2.0619,-0.11764 -4.35958,-0.5888 -6.39258,-0.38281 -2.033,0.20599 -3.80064,1.09034 -5.21484,2.38672 -1.4143,1.29638 -2.47546,3.0048 -3.03516,4.5664 -0.5596,1.56159 -0.6173,2.97573 -0.9414,4.59571 -0.3241,1.61993 -0.93217,3.49792 -2.04297,5.5625 -1.1107,2.06453 -2.75963,4.42122 -4.64453,6.01171 -1.8849,1.59049 -4.00605,2.41665 -6.18555,2.62305 -2.1796,0.20641 -4.41835,-0.20617 -6.15625,-0.76562 -1.7379,-0.55945 -2.97479,-1.26665 -4.24219,-0.67774 -1.2673,0.58888 -2.56288,2.47443 -4.33008,3.97656 -1.7671,1.50212 -4.00616,2.62092 -6.53906,2.97461 -2.533,0.35368 -5.36008,-0.0582 -7.36328,-0.9414 -2.0032,-0.88326 -3.18322,-2.23875 -3.94922,-3.24024 -0.7661,-1.0015 -1.11846,-1.64964 -1.97266,-2.85742 -0.8541,-1.20777 -2.20991,-2.97513 -4.21289,-4.24219 -2.0029,-1.26706 -4.65349,-2.03258 -7.21679,-1.73828 -2.5632,0.2943 -5.03752,1.64908 -7.07032,3.29883 -2.0328,1.64976 -3.62361,3.59411 -5.03711,4.625 -1.41347,1.0309 -2.64984,1.14931 -4.18164,1.35547 -1.5318,0.20616 -3.3579,0.50021 -4.625,1.14844 -1.2672,0.64823 -1.97525,1.6488 -2.56445,2.97461 -0.5891,1.32581 -1.06058,2.97665 -1.76758,4.77343 -0.7069,1.79678 -1.64961,3.74114 -2.91601,5.06641 -1.2663,1.32527 -2.85657,2.03192 -4.41797,2.97461 -1.5614,0.94269 -3.13029,2.1484 -4.08399,3.60742 -0.9537,1.45903 -1.36576,3.22745 -1.63086,5.55469 -0.26497,2.32725 -0.38293,5.21241 -0.70703,7.48047 -0.32408,2.26806 -0.85447,3.91815 -1.82617,5.03711 -0.9717,1.11896 -2.38541,1.70923 -3.68164,2.38671 -1.29622,0.67753 -2.47495,1.44252 -3.44726,2.6211 -0.97232,1.17858 -1.73678,2.76864 -2.73829,4.38867 -1.00148,1.62004 -2.23972,3.27111 -3.83007,4.44922 -1.59036,1.17812 -3.58608,1.90348 -5.47461,2.33594 -1.88853,0.43246 -3.77357,0.60857 -5.57032,0.34375 -1.79672,-0.26482 -3.50608,-0.97225 -5.59765,-1.35547 -2.09157,-0.38321 -4.56603,-0.4405 -6.6875,0.47265 -2.12147,0.91315 -3.88757,2.79769 -5.50781,5.47852 -1.62025,2.68084 -3.09276,6.15689 -4.74219,8.60156 -1.64943,2.44467 -3.47649,3.85908 -5.71485,4.625 -2.23833,0.76592 -4.89042,0.88277 -7.77734,1.26563 -2.88691,0.38287 -6.00859,1.0316 -8.30664,2.0332 -2.29805,1.00161 -3.73861,2.3276 -5.4043,4.72852 -1.66568,2.40092 -3.49168,5.81637 -5.43554,8.02539 -1.94387,2.20902 -4.00684,3.21212 -6.36329,4.0664 -2.35643,0.85427 -5.00637,1.55972 -8.1582,2.06055 -3.15182,0.50083 -6.80462,0.79607 -10.78125,0.56055 -3.97663,-0.23552 -8.27776,-1.00112 -12.136717,-1.50196 -1.495893,-0.19414 -2.925426,-0.34587 -4.328125,-0.41406 0.778038,-0.62424 1.590765,-1.1258 2.480469,-1.57812 1.747533,-0.88846 3.785353,-1.59996 5.736323,-2.66602 1.95097,-1.06605 3.81538,-2.48699 4.92188,-4.29297 1.1065,-1.80597 1.45639,-3.99744 1.39844,-5.71484 -0.0579,-1.71743 -0.54425,-3.01328 -1.08789,-4.52735 -0.54365,-1.51406 -1.1841,-3.34862 -1.6211,-5.80664 -0.437,-2.45802 -0.67125,-5.54063 -0.26367,-7.91015 0.40758,-2.36952 1.45667,-4.0262 3.4082,-5.38867 1.95154,-1.36246 4.78802,-2.42022 7.85547,-2.98633 3.06746,-0.56611 6.32897,-0.62602 9.03711,-1.07031 2.70815,-0.44432 4.86241,-1.2745 6.60938,-2.84376 1.74696,-1.56925 3.08812,-3.8794 4.10742,-6.95898 1.0193,-3.07958 1.71569,-6.91724 3.34766,-9.73633 1.63196,-2.81909 4.19388,-4.59725 6.20312,-6.84765 2.00924,-2.25041 3.46587,-4.97391 3.99024,-7.99414 0.52435,-3.02024 0.1166,-6.33743 -1.19336,-8.73633 -1.30998,-2.3989 -3.52305,-3.8796 -5.73633,-4.88672 -2.21328,-1.00712 -4.4266,-1.5404 -6.20313,-2.54688 -1.77656,-1.00647 -3.11643,-2.48591 -4.01953,-4.17382 -0.90311,-1.68791 -1.36995,-3.58231 -2.12695,-5.56641 -0.75701,-1.98411 -1.80413,-4.05833 -3.28906,-5.50977 -1.48494,-1.45143 -3.40803,-2.28088 -5.09766,-2.10351 -1.68963,0.17738 -3.14431,1.36236 -4.74609,2.90234 -1.60178,1.53998 -3.35094,3.43399 -4.80665,4.5 -1.45569,1.06601 -2.62039,1.3041 -4.42578,1.15625 -1.80538,-0.14788 -4.25005,-0.68134 -6.87109,-1.0664 -2.62104,-0.38507 -5.417007,-0.62254 -6.990234,-0.14844 -1.57324,0.47409 -1.923233,1.65988 -2.796875,3.34765 -0.873631,1.68778 -2.270678,3.87821 -4.017579,5.24024 -1.746899,1.36203 -3.844516,1.89528 -5.5625,1.98437 -1.717991,0.0891 -3.057952,-0.2676 -4.28125,-1.21484 -1.223306,-0.94724 -2.329481,-2.48591 -2.941406,-4.5293 -0.611933,-2.04339 -0.725361,-4.53122 -2.61914,-7.64062 -1.365742,-2.24242 -3.643525,-4.72698 -5.501954,-6.62695 -0.389636,-0.47672 -0.792488,-0.92343 -1.207031,-1.31836 -1.855568,-1.76779 -3.878182,-3.43324 -6.535156,-3.31055 -0.969175,0.0447 -2.730771,2.77976 -9.398437,1.50586 -12.600467,-2.4074 -9.437409,7.66935 -19.535157,6.21094 C 24.859493,219.11939 21.282087,204.73649 10.748047,208.08203 7.2649062,209.18825 0.5,211.97656 0.5,211.97656 V 370.14062 H 450.83789 V 183.04688 c -0.096,-0.0286 -0.18556,-0.0392 -0.26953,-0.0371 z m -45.44727,13.17773 a 1.5194686,1.4869241 0 0 1 1.51953,1.48633 1.5194686,1.4869241 0 0 1 -1.51953,1.48633 1.5194686,1.4869241 0 0 1 -1.51953,-1.48633 1.5194686,1.4869241 0 0 1 1.51953,-1.48633 z m 28.45508,2.03125 a 1.5194686,1.4427384 0 0 1 1.51953,1.44336 1.5194686,1.4427384 0 0 1 -1.51953,1.44336 1.5194686,1.4427384 0 0 1 -1.51953,-1.44336 1.5194686,1.4427384 0 0 1 1.51953,-1.44336 z m -66.93945,3.35937 a 2.8450355,2.7683055 0 0 1 0.043,0 2.8450355,2.7683055 0 0 1 2.84375,2.76758 2.8450355,2.7683055 0 0 1 -2.84375,2.76758 2.8450355,2.7683055 0 0 1 -2.84571,-2.76758 2.8450355,2.7683055 0 0 1 2.80274,-2.76758 z m 51.5625,0.44141 a 1.5194686,1.9729652 0 0 1 1.51953,1.97266 1.5194686,1.9729652 0 0 1 -1.51953,1.97265 1.5194686,1.9729652 0 0 1 -1.51953,-1.97265 1.5194686,1.9729652 0 0 1 1.51953,-1.97266 z m -24.3457,4.33008 a 2.5357366,2.5031921 0 0 1 2.53515,2.50391 2.5357366,2.5031921 0 0 1 -2.53515,2.50195 2.5357366,2.5031921 0 0 1 -2.53516,-2.50195 2.5357366,2.5031921 0 0 1 2.53516,-2.50391 z m -45.17383,1.58984 a 1.8287673,1.7962231 0 0 1 0.0156,0 1.8287673,1.7962231 0 0 1 1.83008,1.79688 1.8287673,1.7962231 0 0 1 -1.83008,1.79687 1.8287673,1.7962231 0 0 1 -1.82812,-1.79687 1.8287673,1.7962231 0 0 1 1.8125,-1.79688 z m 91.8789,2.1211 a 2.0496954,2.0171507 0 0 1 2.04883,2.01757 2.0496954,2.0171507 0 0 1 -2.04883,2.01758 2.0496954,2.0171507 0 0 1 -2.05078,-2.01758 2.0496954,2.0171507 0 0 1 2.05078,-2.01757 z m -426.394528,1.64648 a 1.2199709,1.7779209 0 0 1 0.0059,0 1.2199709,1.7779209 0 0 1 1.220703,1.77735 1.2199709,1.7779209 0 0 1 -1.220703,1.77929 1.2199709,1.7779209 0 0 1 -1.220703,-1.77929 1.2199709,1.7779209 0 0 1 1.214843,-1.77735 z m 359.798828,2.24219 a 1.563654,1.4869241 0 0 1 0.008,0 1.563654,1.4869241 0 0 1 1.5625,1.48633 1.563654,1.4869241 0 0 1 -1.5625,1.48828 1.563654,1.4869241 0 0 1 -1.56445,-1.48828 1.563654,1.4869241 0 0 1 1.55664,-1.48633 z M 327,214.65625 a 2.579922,2.5473778 0 0 1 2.58008,2.54687 A 2.579922,2.5473778 0 0 1 327,219.75195 2.579922,2.5473778 0 0 1 324.41992,217.20312 2.579922,2.5473778 0 0 1 327,214.65625 Z M 5.546875,215.19531 a 2.7481635,3.1155098 0 0 1 0.00195,0 2.7481635,3.1155098 0 0 1 2.7480469,3.11524 2.7481635,3.1155098 0 0 1 -2.7480469,3.11523 2.7481635,3.1155098 0 0 1 -2.7480469,-3.11523 2.7481635,3.1155098 0 0 1 2.7460938,-3.11524 z m 42.013672,5.32422 a 2.5009716,2.7152383 0 0 1 0.02344,0 2.5009716,2.7152383 0 0 1 2.5,2.71485 2.5009716,2.7152383 0 0 1 -2.5,2.71679 2.5009716,2.7152383 0 0 1 -2.501953,-2.71679 2.5009716,2.7152383 0 0 1 2.478516,-2.71485 z m 15.990234,1.17383 a 3.032118,3.215141 0 0 1 0.002,0 3.032118,3.215141 0 0 1 3.033204,3.21484 3.032118,3.215141 0 0 1 -3.033204,3.2168 3.032118,3.215141 0 0 1 -3.03125,-3.2168 3.032118,3.215141 0 0 1 3.029297,-3.21484 z m -29.785156,2.04102 a 1.2199709,1.37175 0 0 1 0.02539,0 1.2199709,1.37175 0 0 1 1.21875,1.37109 1.2199709,1.37175 0 0 1 -1.21875,1.37305 1.2199709,1.37175 0 0 1 -1.220704,-1.37305 1.2199709,1.37175 0 0 1 1.195314,-1.37109 z m 89.431645,4.91406 a 2.1053297,1.799452 0 0 1 0.0176,0 2.1053297,1.799452 0 0 1 2.10547,1.79883 2.1053297,1.799452 0 0 1 -2.10547,1.79882 2.1053297,1.799452 0 0 1 -2.10546,-1.79882 2.1053297,1.799452 0 0 1 2.08789,-1.79883 z m 204.99609,1.56054 a 1.563654,1.3985531 0 0 1 1.56445,1.39844 1.563654,1.3985531 0 0 1 -1.56445,1.39844 1.563654,1.3985531 0 0 1 -1.5625,-1.39844 1.563654,1.3985531 0 0 1 1.5625,-1.39844 z m -65.90039,1.32618 a 1.8287675,1.6194809 0 0 1 0.0644,0 1.8287675,1.6194809 0 0 1 1.82813,1.61914 1.8287675,1.6194809 0 0 1 -1.82813,1.61914 1.8287675,1.6194809 0 0 1 -1.83008,-1.61914 1.8287675,1.6194809 0 0 1 1.76563,-1.61914 z m -162.884767,0.93359 a 3.7215897,4.0204675 0 0 1 3.720707,4.01953 3.7215897,4.0204675 0 0 1 -3.720707,4.02149 3.7215897,4.0204675 0 0 1 -3.720703,-4.02149 3.7215897,4.0204675 0 0 1 3.720703,-4.01953 z m 208.636717,4.98633 a 1.563654,1.3985531 0 0 1 1.56446,1.40039 1.563654,1.3985531 0 0 1 -1.56446,1.39844 1.563654,1.3985531 0 0 1 -1.56445,-1.39844 1.563654,1.3985531 0 0 1 1.56445,-1.40039 z m -60.7168,2.56445 a 2.5357366,2.6357489 0 0 1 0.006,0 2.5357366,2.6357489 0 0 1 2.53516,2.63477 2.5357366,2.6357489 0 0 1 -2.53516,2.63672 2.5357366,2.6357489 0 0 1 -2.53515,-2.63672 2.5357366,2.6357489 0 0 1 2.52929,-2.63477 z m -111.92578,0.62109 a 1.5374545,1.355249 0 0 1 1.53711,1.35547 1.5374545,1.355249 0 0 1 -1.53711,1.35547 1.5374545,1.355249 0 0 1 -1.53711,-1.35547 1.5374545,1.355249 0 0 1 1.53711,-1.35547 z m 155.14454,2.0293 a 1.6520251,1.6194809 0 0 1 1.65234,1.61914 1.6520251,1.6194809 0 0 1 -1.65234,1.61914 1.6520251,1.6194809 0 0 1 -1.65235,-1.61914 1.6520251,1.6194809 0 0 1 1.65235,-1.61914 z m -147.4043,0.66016 a 2.8933193,3.6185563 10.392764 0 1 0.50976,0.0449 2.8933193,3.6185563 10.392764 0 1 2.14454,4.125 2.8933193,3.6185563 10.392764 0 1 -3.5293,2.97852 2.8933193,3.6185563 10.392764 0 1 -2.14453,-4.12305 2.8933193,3.6185563 10.392764 0 1 3.01953,-3.02539 z m 115.7539,4.37695 a 1.2985406,1.2659963 0 0 1 0.0137,0 1.2985406,1.2659963 0 0 1 1.29882,1.26563 1.2985406,1.2659963 0 0 1 -1.29882,1.26562 1.2985406,1.2659963 0 0 1 -1.29883,-1.26562 1.2985406,1.2659963 0 0 1 1.28515,-1.26563 z m 14.33008,2.0332 a 1.6520251,1.6194809 0 0 1 1.65235,1.61915 1.6520251,1.6194809 0 0 1 -1.65235,1.61914 1.6520251,1.6194809 0 0 1 -1.65234,-1.61914 1.6520251,1.6194809 0 0 1 1.65234,-1.61915 z m -36.85351,1.14844 a 1.3869118,1.1334396 0 0 1 0.002,0 1.3869118,1.1334396 0 0 1 1.38867,1.13281 1.3869118,1.1334396 0 0 1 -1.38867,1.13477 1.3869118,1.1334396 0 0 1 -1.38672,-1.13477 1.3869118,1.1334396 0 0 1 1.38477,-1.13281 z m -102.1836,8.85938 a 1.3735584,1.4331439 54.483842 0 1 0.11328,0.004 1.3735584,1.4331439 54.483842 0 1 1.23633,1.49805 1.3735584,1.4331439 54.483842 0 1 -1.57031,1.28125 1.3735584,1.4331439 54.483842 0 1 -1.23633,-1.49805 1.3735584,1.4331439 54.483842 0 1 1.45703,-1.28515 z m 93.42578,3.63867 a 2.1367658,2.070757 0 0 1 0.0117,0 2.1367658,2.070757 0 0 1 2.13672,2.07031 2.1367658,2.070757 0 0 1 -2.13672,2.07031 2.1367658,2.070757 0 0 1 -2.13672,-2.07031 2.1367658,2.070757 0 0 1 2.125,-2.07031 z m 12.13477,0.25 a 1.5118875,1.4458788 0 0 1 1.51172,1.44531 1.5118875,1.4458788 0 0 1 -1.51172,1.44531 1.5118875,1.4458788 0 0 1 -1.51172,-1.44531 1.5118875,1.4458788 0 0 1 1.51172,-1.44531 z M 132.66797,277.6875 a 1.7121853,1.932713 0 0 1 0.0273,0 1.7121853,1.932713 0 0 1 1.71094,1.93359 1.7121853,1.932713 0 0 1 -1.71094,1.93164 1.7121853,1.932713 0 0 1 -1.71289,-1.93164 1.7121853,1.932713 0 0 1 1.68555,-1.93359 z m 99.95898,1.32031 a 1.6368631,1.6333422 0 0 1 1.63672,1.63281 1.6368631,1.6333422 0 0 1 -1.63672,1.63477 1.6368631,1.6333422 0 0 1 -1.63672,-1.63477 1.6368631,1.6333422 0 0 1 1.63672,-1.63281 z m -131.81054,3.89649 a 1.7211347,1.9226635 31.871056 0 1 0.93164,0.30664 1.7211347,1.9226635 31.871056 0 1 0.26757,2.58594 1.7211347,1.9226635 31.871056 0 1 -2.501948,0.53906 1.7211347,1.9226635 31.871056 0 1 -0.267578,-2.58594 1.7211347,1.9226635 31.871056 0 1 1.570316,-0.8457 z m 116.0625,3.60156 a 1.8868145,1.8208057 0 0 1 1.88671,1.82226 1.8868145,1.8208057 0 0 1 -1.88671,1.82032 1.8868145,1.8208057 0 0 1 -1.88672,-1.82032 1.8868145,1.8208057 0 0 1 1.88672,-1.82226 z m 5,9.74805 a 1.6368631,1.3833909 0 0 1 1.63671,1.38476 1.6368631,1.3833909 0 0 1 -1.63671,1.38281 1.6368631,1.3833909 0 0 1 -1.63672,-1.38281 1.6368631,1.3833909 0 0 1 1.63672,-1.38476 z m -36.36719,0.75 a 1.1369605,1.0709517 0 0 1 1.13672,1.07226 1.1369605,1.0709517 0 0 1 -1.13672,1.07031 1.1369605,1.0709517 0 0 1 -1.13867,-1.07031 1.1369605,1.0709517 0 0 1 1.13867,-1.07226 z m 13.94531,4.125 a 1.8868145,1.8208057 0 0 1 0.0508,0 1.8868145,1.8208057 0 0 1 1.88672,1.82031 1.8868145,1.8208057 0 0 1 -1.88672,1.82031 1.8868145,1.8208057 0 0 1 -1.88672,-1.82031 1.8868145,1.8208057 0 0 1 1.83594,-1.82031 z m -20.9668,7.87304 a 1.3869118,1.4458788 0 0 1 0.0215,0 1.3869118,1.4458788 0 0 1 1.38672,1.44532 1.3869118,1.4458788 0 0 1 -1.38672,1.44726 1.3869118,1.4458788 0 0 1 -1.38672,-1.44726 1.3869118,1.4458788 0 0 1 1.36523,-1.44532 z m -79.300777,2.88867 a 2.7168873,3.1320613 0 0 1 2.716797,3.13282 2.7168873,3.1320613 0 0 1 -2.716797,3.13281 2.7168873,3.1320613 0 0 1 -2.716797,-3.13281 2.7168873,3.1320613 0 0 1 2.716797,-3.13282 z m 54.371097,7.23438 a 1.8243267,1.5083666 0 0 1 0.0195,0 1.8243267,1.5083666 0 0 1 1.82422,1.50781 1.8243267,1.5083666 0 0 1 -1.82422,1.50977 1.8243267,1.5083666 0 0 1 -1.82422,-1.50977 1.8243267,1.5083666 0 0 1 1.80469,-1.50781 z m -69.076175,11.24609 a 1.14431,1.221988 0 0 1 0.02734,0 1.14431,1.221988 0 0 1 1.144531,1.22071 1.14431,1.221988 0 0 1 -1.144531,1.22265 1.14431,1.221988 0 0 1 -1.144531,-1.22265 1.14431,1.221988 0 0 1 1.117187,-1.22071 z m 47.080075,3.50196 a 1.8243267,1.5083666 0 0 1 0.0195,0 1.8243267,1.5083666 0 0 1 1.82422,1.50781 1.8243267,1.5083666 0 0 1 -1.82422,1.50781 1.8243267,1.5083666 0 0 1 -1.82421,-1.50781 1.8243267,1.5083666 0 0 1 1.80468,-1.50781 z"
       style="opacity:1;fill:#4bbbbc;fill-opacity:1;stroke:none;stroke-width:0.999999px;stroke-linecap:butt;stroke-linejoin:miter;stroke-opacity:1"
       id="path861" />
    <rect
       y="110.38764"
       x="184.94951"
       height="61.815853"
       width="64.420456"
       id="rect977"
       style="opacity:0;fill:#ff8080;fill-opacity:1;fill-rule:evenodd;stroke:#000080;stroke-width:0.0649999;stroke-linecap:round;paint-order:fill markers stroke" />
  </g>
</svg>
