<?xml version="1.0" encoding="UTF-8" standalone="no"?>
<svg
   xmlns:dc="http://purl.org/dc/elements/1.1/"
   xmlns:cc="http://creativecommons.org/ns#"
   xmlns:rdf="http://www.w3.org/1999/02/22-rdf-syntax-ns#"
   xmlns:svg="http://www.w3.org/2000/svg"
   xmlns="http://www.w3.org/2000/svg"
   xmlns:sodipodi="http://sodipodi.sourceforge.net/DTD/sodipodi-0.dtd"
   xmlns:inkscape="http://www.inkscape.org/namespaces/inkscape"
   inkscape:version="1.0 (4035a4fb49, 2020-05-01)"
   sodipodi:docname="color.svg"
   id="svg8"
   version="1.1"
   viewBox="0 0 28.976789 27.56472"
   height="27.56472mm"
   width="28.976789mm">
  <defs
     id="defs2">
    <inkscape:path-effect
       only_selected="false"
       apply_with_weight="true"
       apply_no_weight="true"
       helper_size="0"
       steps="2"
       weight="33.333333"
       lpeversion="1"
       is_visible="true"
       id="path-effect863"
       effect="bspline" />
  </defs>
  <sodipodi:namedview
     inkscape:window-maximized="1"
     inkscape:window-y="-8"
     inkscape:window-x="-8"
     inkscape:window-height="1017"
     inkscape:window-width="1920"
     showgrid="false"
     inkscape:document-rotation="0"
     inkscape:current-layer="layer1"
     inkscape:document-units="mm"
     inkscape:cy="-4.9784826"
     inkscape:cx="28.479439"
     inkscape:zoom="1"
     inkscape:pageshadow="2"
     inkscape:pageopacity="0.0"
     borderopacity="1.0"
     bordercolor="#666666"
     pagecolor="#ffffff"
     id="base" />
  <metadata
     id="metadata5">
    <rdf:RDF>
      <cc:Work
         rdf:about="">
        <dc:format>image/svg+xml</dc:format>
        <dc:type
           rdf:resource="http://purl.org/dc/dcmitype/StillImage" />
        <dc:title></dc:title>
      </cc:Work>
    </rdf:RDF>
  </metadata>
  <g
     transform="translate(-228.98861,-180.61402)"
     id="layer1"
     inkscape:groupmode="layer"
     inkscape:label="Layer 1">
    <path
       sodipodi:nodetypes="ccccccccccccsccccscscssssccsssssssssssscccscssssssssassscssssccccccccccccscccccccccccccccccccccccscccccsscccsscccccsccccsscsccccss"
       d="m 257.9654,208.17874 v -27.56472 h -28.97679 v 27.56472 z m -15.52087,-2.40605 c -0.004,7e-5 -0.008,7e-5 -0.0115,0 -0.18575,-0.004 -0.3338,-0.16832 -0.33063,-0.36639 0.003,-0.19819 0.15631,-0.35537 0.34216,-0.35088 0.18558,0.004 0.33338,0.16848 0.33021,0.36638 -0.003,0.19321 -0.14903,0.34838 -0.33021,0.35089 z m -7.34138,-0.24133 c -0.009,1.9e-4 -0.0179,1.9e-4 -0.0269,0 -0.44941,-0.0106 -0.80607,-0.4953 -0.79667,-1.08262 0.009,-0.58736 0.38141,-1.05493 0.83085,-1.04438 0.44925,0.0106 0.80585,0.49497 0.79667,1.0821 -0.009,0.57385 -0.36478,1.03622 -0.80394,1.0449 z m 2.39601,-0.2372 c -0.33502,0.0155 -0.55686,-0.62634 -0.76079,-0.98753 -0.41218,-0.73004 -0.25124,-1.94054 -0.85178,-2.4443 -0.4189,-0.35139 -1.18198,-0.1928 -1.528,-0.0754 -0.34602,0.11739 -0.42764,0.42976 -0.6258,0.87178 -0.19816,0.442 -0.51274,1.01392 -0.90048,1.3653 -0.38775,0.35138 -0.87879,0.80675 -1.2247,0.49661 -1.03735,-0.93008 0.74146,-3.32193 0.10935,-4.68396 -0.25896,-0.558 -1.06184,-0.43952 -1.37763,-0.95291 -0.47657,-0.91278 0.0501,-1.75168 0.63606,-2.3027 0.3502,-0.30998 0.78432,-0.50363 1.19736,-0.61805 0.41305,-0.11442 0.82533,-0.16102 1.2183,-0.0909 0.39296,0.0701 0.76682,0.25724 1.22427,0.35863 0.45746,0.10139 0.99865,0.11655 1.46264,-0.12505 0.46399,-0.24161 0.85026,-0.74022 1.20463,-1.44953 0.35436,-0.7093 0.67642,-1.62901 1.03717,-2.27583 0.36075,-0.64682 0.76035,-1.02105 1.24991,-1.2237 0.48955,-0.20265 1.06959,-0.23356 1.70099,-0.33486 0.63141,-0.1013 1.31416,-0.27295 1.81677,-0.53795 0.50261,-0.26501 0.81768,-0.61584 1.18198,-1.25109 0.36431,-0.63524 0.76368,-1.53891 1.18882,-2.12338 0.42515,-0.58447 0.87635,-0.84988 1.39173,-1.07591 0.51538,-0.22602 1.09495,-0.41267 1.7843,-0.54518 1.15609,-0.12171 4.51836,-0.44215 4.81722,0.17466 0.18654,0.45688 -0.145,0.97414 -0.65529,1.3069 -0.4267,0.28206 -0.83446,0.65802 -1.07647,1.13585 -0.242,0.47783 -0.31853,1.05766 -0.30586,1.51205 0.0127,0.45441 0.11904,0.79726 0.23794,1.19786 0.1189,0.4006 0.25898,0.88599 0.35455,1.53634 0.0956,0.65035 0.14681,1.46596 0.0577,2.0929 -0.0891,0.62693 -0.31859,1.06526 -0.74541,1.42575 -0.42683,0.36048 -1.0472,0.64035 -1.71809,0.79013 -0.67089,0.14979 -1.38422,0.16564 -1.97653,0.28319 -0.5923,0.11756 -1.06346,0.33721 -1.44555,0.75241 -0.38208,0.4152 -0.66255,1.18813 -0.89834,1.84123 -0.20105,0.55686 -0.25989,1.14935 -0.43144,1.74666 -0.32395,1.1279 -0.78327,2.80868 -1.76892,2.8727 -0.42187,0.0274 -0.67125,-0.67335 -0.86161,-1.12448 -0.19035,-0.45112 -0.28411,-0.9549 -0.44127,-1.48363 -0.15716,-0.52873 -0.37771,-1.08279 -0.69629,-1.47433 -0.31859,-0.39153 -0.7353,-0.62069 -1.10552,-0.5824 -0.37022,0.0383 -0.79743,0.35974 -1.04999,0.74363 -0.94325,1.43376 0.11123,4.79675 -1.35712,5.24671 -0.0234,0.007 -0.0464,0.0109 -0.0688,0.0119 z m 2.34731,-2.52181 c 0.0105,0 -0.0211,3.7e-4 -0.0316,0 -0.25408,-0.006 -0.45673,-0.22356 -0.4528,-0.48627 0.004,-0.26133 0.21156,-0.46893 0.46433,-0.46509 l -4.3e-4,-5.3e-4 c 0.002,1.7e-4 0.003,3.4e-4 0.004,5.3e-4 0.25408,0.006 0.45673,0.22356 0.4528,0.48627 -0.004,0.25038 -0.19471,0.45366 -0.43656,0.46509 z m 6.56008,-3.56877 c -0.002,2e-5 -0.004,2e-5 -0.006,0 -0.20677,-2.1e-4 -0.37429,-0.22923 -0.3742,-0.5116 1.1e-4,-0.28216 0.16757,-0.51087 0.3742,-0.51108 0.2068,-1.1e-4 0.37452,0.22869 0.37463,0.51108 1.2e-4,0.27943 -0.16404,0.50725 -0.36865,0.5116 z m 6.96633,-1.38028 c -0.0746,-5.3e-4 -0.14541,-0.0288 -0.20377,-0.0811 -0.16716,-0.14957 -0.19335,-0.45581 -0.0585,-0.6842 0.13501,-0.2283 0.37997,-0.29214 0.54721,-0.14262 0.16716,0.14957 0.19335,0.45581 0.0585,0.68419 -0.0829,0.14034 -0.21215,0.22458 -0.34344,0.22376 z m -18.52389,-3.73052 c -0.13744,-3e-5 -0.24879,-0.1271 -0.24862,-0.28371 9e-5,-0.1564 0.11136,-0.28315 0.24862,-0.28318 0.13742,-2.4e-4 0.24895,0.12659 0.24904,0.28318 1.7e-4,0.1568 -0.11144,0.28394 -0.24904,0.28371 z m -3.05001,-1.09141 c -0.004,6e-5 -0.007,6e-5 -0.0111,0 -0.22786,-1e-5 -0.41259,-0.21562 -0.41265,-0.48162 6e-5,-0.26601 0.18479,-0.48161 0.41265,-0.48163 0.22786,2e-5 0.41259,0.21562 0.41265,0.48163 2e-5,0.26102 -0.17804,0.47459 -0.40155,0.48162 z m 4.58569,-2.08307 c -0.002,1e-5 -0.003,1e-5 -0.005,0 -0.16746,-3e-5 -0.30323,-0.17121 -0.30329,-0.38241 -1.7e-4,-0.2114 0.13566,-0.38289 0.30329,-0.38292 0.16762,3e-5 0.30345,0.17152 0.30329,0.38292 -4e-5,0.20891 -0.13296,0.37914 -0.29859,0.38241 z m 17.34404,-0.7643 c -0.32822,-1e-5 -0.59427,-0.37115 -0.5942,-0.82889 -7e-5,-0.45774 0.26598,-0.82887 0.5942,-0.82889 0.32822,2e-5 0.59428,0.37115 0.5942,0.82889 8e-5,0.45774 -0.26598,0.82888 -0.5942,0.82889 z m -11.89162,-1.91409 c -0.002,1e-5 -0.003,1e-5 -0.004,0 -0.2203,-2e-5 -0.3989,-0.1786 -0.39898,-0.39895 -2e-4,-0.22054 0.17848,-0.39944 0.39898,-0.39945 0.2205,1e-5 0.39918,0.17891 0.39898,0.39945 -7e-5,0.21869 -0.17608,0.39659 -0.39471,0.39895 z m 15.1078,-2.97553 c -0.002,3e-5 -0.004,3e-5 -0.006,0 -0.13814,3e-5 -0.25018,-0.14453 -0.25032,-0.32298 -8e-5,-0.17866 0.11202,-0.32353 0.25032,-0.3235 0.13829,-3e-5 0.2504,0.14484 0.25032,0.3235 -10e-5,0.17548 -0.10854,0.31882 -0.24434,0.32298 z m -10.29698,-0.92656 c -0.002,1e-5 -0.003,1e-5 -0.004,0 -0.22029,-1e-5 -0.3989,-0.1786 -0.39898,-0.39894 8e-5,-0.22035 0.17868,-0.39893 0.39898,-0.39895 0.2203,2e-5 0.3989,0.1786 0.39898,0.39895 -7e-5,0.21868 -0.17608,0.39658 -0.39471,0.39894 z"
       style="opacity:1;fill:#4bbbbc;fill-opacity:1;stroke:none;stroke-width:0.240557px;stroke-linecap:butt;stroke-linejoin:miter;stroke-opacity:1"
       id="path861" />
    <rect
       style="opacity:0;fill:#ff8080;fill-opacity:1;fill-rule:evenodd;stroke:#000080;stroke-width:0.0649999;stroke-linecap:round;paint-order:fill markers stroke"
       id="rect977"
       width="64.420456"
       height="61.815853"
       x="184.94951"
       y="110.38764" />
  </g>
</svg>
